<?xml version="1.0" standalone="no"?>
<!DOCTYPE svg PUBLIC "-//W3C//DTD SVG 20010904//EN"
 "http://www.w3.org/TR/2001/REC-SVG-20010904/DTD/svg10.dtd">
<svg version="1.0" xmlns="http://www.w3.org/2000/svg"
 width="76.000000pt" height="76.000000pt" viewBox="0 0 76.000000 76.000000"
 preserveAspectRatio="xMidYMid meet">
  <g transform="translate(0.000000,76.000000) scale(0.100000,-0.100000)"
  fill="#000000" stroke="none">
  <path d="M0 578 l0 -183 151 -2 c137 -1 171 -5 158 -17 -12 -12 -258 -26 -283
  -17 l-26 11 0 -185 0 -185 189 0 190 0 -9 29 c-9 32 7 261 20 274 17 19 37
  -250 21 -281 l-12 -22 181 0 180 0 0 178 0 177 -58 1 c-97 2 -232 15 -232 23
  0 9 124 21 222 21 l68 0 0 180 0 180 -180 0 -181 0 12 -22 c16 -31 -4 -300
  -21 -281 -13 13 -29 242 -20 274 l9 29 -190 0 -189 0 0 -182z m164 56 c20 -7
  131 -143 123 -150 -7 -8 -154 103 -161 122 -11 28 6 40 38 28z m476 -14 c0
  -13 -27 -41 -76 -80 -115 -90 -122 -80 -21 34 59 67 97 85 97 46z m-350 -326
  c0 -3 -26 -37 -57 -75 -57 -69 -87 -89 -104 -72 -17 17 3 44 75 98 67 52 86
  62 86 49z m276 -50 c40 -30 75 -61 77 -68 8 -21 -9 -39 -31 -32 -24 8 -149
  156 -131 156 6 0 45 -25 85 -56z"/>
  </g>
</svg>
